<svg xmlns="http://www.w3.org/2000/svg" width="638" height="136">
  <defs>
    <linearGradient id="a" x1="50%" x2="50%" y1="0%" y2="100%">
      <stop offset="0%" stop-color="red"/>
      <stop offset="100%" stop-color="#FFD308"/>
    </linearGradient>
    <linearGradient id="b" x1="50%" x2="50%" y1="0%" y2="100%">
      <stop offset="0%" stop-color="#017DFE"/>
      <stop offset="100%" stop-color="#00F9D8"/>
    </linearGradient>
    <linearGradient id="c" x1="50%" x2="50%" y1="0%" y2="100%">
      <stop offset="0%" stop-color="#017DFE"/>
      <stop offset="100%" stop-color="#FFD410"/>
    </linearGradient>
    <linearGradient id="d" x1="50%" x2="50%" y1="0%" y2="100%">
      <stop offset="0%" stop-color="red"/>
      <stop offset="100%" stop-color="#00FFC8"/>
    </linearGradient>
  </defs>
  <g fill="none">
    <path fill="#fff" d="M178.288964 66.1082122c.193521-5.5734061 1.528795-9.8501568 4.005865-12.8303808 2.47707-2.980224 5.960396-4.4703138 10.450084-4.4703138 4.644505 0 8.205239 1.6062006 10.682308 4.8186499 2.515774 3.2511535 3.773641 7.8762369 3.773641 13.8753891V95.484559h9.230908V66.1082122c.232225-5.6121103 1.586852-9.888861 4.063921-12.8303808 2.47707-2.980224 5.941044-4.4703138 10.392028-4.4703138 4.683209 0 8.263295 1.6062006 10.740365 4.8186499 2.477068 3.2511535 3.715585 7.8762369 3.715585 13.8753891V95.484559h9.288963V67.5015566c0-6.0378564-1.141757-11.2821979-3.425305-15.7331818-2.244844-4.450984-5.437894-7.7214405-9.579243-9.8114676-3.173746-1.5868726-6.753832-2.380297-10.740365-2.380297-3.947829 0-7.508562.7934244-10.682307 2.380297-3.405971 1.8190977-5.999114 4.7218697-7.779507 8.7084031-2.244844-3.9091249-5.225024-6.811897-8.940628-8.7084031-3.212449-1.5868726-6.792535-2.380297-10.740364-2.380297-3.986534 0-7.566619.7934244-10.740364 2.380297-1.354647.7353798-2.593163 1.6642669-3.715585 2.7866889v-5.1669859H169V95.484559h9.288964V66.1082122zm94.18411-3.4253054h32.68554c0-.5031546-.038703-.9482463-.116111-1.3352884l-.116112-.4063922c-1.93521-8.0891794-7.295663-12.1337086-16.081518-12.1337086-4.954139 0-8.843853 1.3352752-11.66926 4.0058656-2.128733 2.0126188-3.59947 4.7218727-4.412259 8.127843-.116111.5031547-.212871 1.0837091-.29028 1.7416806zm42.438952 4.2961456v4.3542016h-42.61312c.077409.73538.154817 1.3159345.232225 1.7416807.73538 3.6768997 2.22547 6.6183754 4.470313 8.8245153 2.941521 2.8641114 7.082808 4.2961456 12.423989 4.2961456 3.522083 0 6.657076-.619258 9.405075-1.8577927 2.709294-1.2385347 4.779939-2.9801979 6.211995-5.2250419l8.360067 4.0639215c-2.206141 3.8704208-5.418541 6.8893037-9.6373 9.0567393-4.218758 2.1674352-8.998656 3.2511372-14.339837 3.2511372-8.011771 0-14.436573-2.4963839-19.2746-7.4892267-4.799322-4.9541387-7.257001-11.6305144-7.373114-20.0293275v-.4644482c0-8.4762215 2.360921-15.2687082 7.082835-20.3776635 4.721912-5.0702513 11.049957-7.6053389 18.984319-7.6053389 6.928052 0 12.65619 1.9351814 17.184582 5.8056021 4.528392 3.9091251 7.334406 9.2889292 8.418123 16.1395741.270929 1.8190977.425745 3.6575201.464448 5.515322zm21.730196-13.3528849c-2.864111 3.2124492-4.296146 7.8375327-4.296146 13.8753891s1.432035 10.6629399 4.296146 13.8753892c2.902816 3.2124493 7.063456 4.8186498 12.482045 4.8186498 5.418589 0 9.559878-1.6062005 12.423988-4.8186498 2.902816-3.2124493 4.354202-7.8181809 4.354202-13.8173331v-.1161121c0-5.9991522-1.451386-10.6048839-4.354202-13.8173331-2.86411-3.2124493-7.005399-4.8186499-12.423988-4.8186499s-9.579229 1.6062006-12.482045 4.8186499zm12.482045 41.8583915c-2.012619 0-3.928449-.174166-5.747546-.522504l-.580561-.116112c-6.192673-1.277239-11.030626-4.3348257-14.514005-9.1728516-3.483378-4.838026-5.225042-10.8951437-5.225042-18.1715348 0-7.3150952 1.761016-13.3915647 5.283098-18.2295908 3.522083-4.8380259 8.398741-7.8762606 14.630117-9.1147954l.580561-.174168c1.780394-.3096336 3.638168-.4644482 5.573378-.4644482 1.935211 0 3.812337.1741663 5.631434.5225042l.522504.116112c4.373576.928901 7.914957 2.9995451 10.624252 6.2119943V12h9.288963v83.484559h-9.288963v-6.8506106c-2.67059 3.1737452-6.153916 5.2443892-10.450084 6.2119946l-.638616.116112c-1.819098.348338-3.715576.522504-5.68949.522504zm39.088946 0h9.230908V39.5185542h-9.230908V95.484559zm8.302011-67.8094332c1.045014-1.0063094 1.567513-2.2448255 1.567513-3.7155854 0-1.4320556-.522499-2.6705718-1.567513-3.7155853-1.006309-1.0063094-2.244825-1.5094566-3.715586-1.5094566-1.432054 0-2.651219.5031472-3.657528 1.5094566-1.045014 1.0450135-1.567513 2.2835297-1.567513 3.7155853 0 1.4707599.522499 2.709276 1.567513 3.7155854 1.006309 1.0450136 2.225474 1.5675126 3.657528 1.5675126 1.470761 0 2.709277-.522499 3.715586-1.5675126zm23.297709 25.9510417c-2.864111 3.2124492-4.296145 7.8375327-4.296145 13.8753891s1.432034 10.6629399 4.296145 13.8753892c2.902816 3.2124493 7.063455 4.8186498 12.482045 4.8186498 5.418589 0 9.559877-1.6062005 12.423988-4.8186498 2.902816-3.2124493 4.354202-7.8181809 4.354202-13.8173331v-.1161121c0-5.9991522-1.451386-10.6048839-4.354202-13.8173331-2.864111-3.2124493-7.005399-4.8186499-12.423988-4.8186499-5.41859 0-9.579229 1.6062006-12.482045 4.8186499zm12.482045 41.8583915c-2.012619 0-3.928448-.174166-5.747547-.522504l-.580559-.116112c-6.192674-1.277239-11.030627-4.3348257-14.514006-9.1728516-3.483379-4.838026-5.225042-10.8951437-5.225042-18.1715348 0-7.3150952 1.761015-13.3915647 5.283097-18.2295908 3.522084-4.8380259 8.398741-7.8762606 14.630119-9.1147954l.580559-.174168c1.780394-.3096336 3.638168-.4644482 5.573379-.4644482 1.93521 0 3.812336.1741663 5.631433.5225042l.522505.116112c4.373575.928901 7.914958 2.9995451 10.624252 6.2119943v-6.7925545h9.288964V95.484559h-9.288964v-6.8506106c-2.670591 3.1737452-6.153917 5.2443892-10.450084 6.2119946l-.638616.116112c-1.819098.348338-3.715575.522504-5.68949.522504zm75.780351-41.8583915c-2.902815-3.2124493-7.063455-4.8186499-12.482044-4.8186499s-9.559877 1.6062006-12.423989 4.8186499c-2.902815 3.2124492-4.354201 7.8181809-4.354201 13.8173331v.1161121c0 5.9991522 1.451386 10.6048838 4.354201 13.8173331 2.864112 3.2124493 7.0054 4.8186498 12.423989 4.8186498 5.418589 0 9.579229-1.6062005 12.482044-4.8186498 2.864112-3.2124493 4.296146-7.8375328 4.296146-13.8753892 0-6.0378564-1.432034-10.6629399-4.296146-13.8753891zm-29.260234 35.0077809v6.8506106h-9.288964V12h9.288964v34.3691647c2.670591-3.2124492 6.211972-5.3024451 10.624252-6.2700502l.580559-.1161121c1.780395-.3096336 3.638169-.4644482 5.573379-.4644482s3.812336.1741663 5.631434.5225042l.522504.116112c6.231378 1.2385348 11.108035 4.2767695 14.630117 9.1147954 3.522084 4.8380261 5.283099 10.9144956 5.283099 18.2295908 0 7.2763911-1.741663 13.3335088-5.225042 18.1715348-3.483379 4.8380259-8.321333 7.8956126-14.514006 9.1728516-.154816.038704-.348335.077408-.58056.116112-1.857802.348338-3.773631.522504-5.747546.522504-1.973915 0-3.870393-.174166-5.68949-.522504l-.580561-.116112c-4.334871-.9676054-7.837548-3.0382494-10.508139-6.2119946zm64.57554-35.0077809c-2.864111 3.2124492-4.296146 7.8375327-4.296146 13.8753891s1.432035 10.6629399 4.296146 13.8753892c2.902815 3.2124493 7.063455 4.8186498 12.482044 4.8186498 5.41859 0 9.559878-1.6062005 12.423989-4.8186498 2.902815-3.2124493 4.354201-7.8181809 4.354201-13.8173331v-.1161121c0-5.9991522-1.451386-10.6048839-4.354201-13.8173331-2.864111-3.2124493-7.005399-4.8186499-12.423989-4.8186499-5.418589 0-9.579229 1.6062006-12.482044 4.8186499zm12.482044 41.8583915c-2.012618 0-3.928448-.174166-5.747546-.522504l-.58056-.116112c-6.192673-1.277239-11.030626-4.3348257-14.514005-9.1728516-3.483379-4.838026-5.225043-10.8951437-5.225043-18.1715348 0-7.3150952 1.761016-13.3915647 5.283098-18.2295908 3.522084-4.8380259 8.39874-7.8762606 14.630118-9.1147954l.58056-.174168c1.780394-.3096336 3.638168-.4644482 5.573378-.4644482 1.935211 0 3.812337.1741663 5.631434.5225042l.522504.116112c4.373576.928901 7.914958 2.9995451 10.624252 6.2119943v-6.7925545h9.288964V95.484559h-9.288964v-6.8506106c-2.67059 3.1737452-6.153916 5.2443892-10.450084 6.2119946l-.638615.116112c-1.819098.348338-3.715576.522504-5.689491.522504zm81.934291-56.0821168h-9.288964v29.550515c-.193521 5.5734059-1.528797 9.8501568-4.005865 12.8303808-2.47707 2.980224-5.960396 4.4703136-10.450084 4.4703136-4.644506 0-8.205239-1.6255524-10.682308-4.8767058-2.515774-3.2124493-3.773641-7.8375328-3.773641-13.8753892V39.4024422H590.3752v28.0991144c0 6.0765607 1.122405 11.340254 3.36725 15.7912379 2.283547 4.4509839 5.476597 7.7214404 9.579243 9.8114677 3.173744 1.5868728 6.75383 2.3802968 10.740364 2.3802968s7.566618-.793424 10.740364-2.3802968c1.315943-.73538 2.554459-1.664267 3.715585-2.7866891v9.3470199c0 5.302476-1.393331 9.347005-4.180033 12.133708-2.825407 2.825407-6.869936 4.23809-12.133709 4.23809-6.502307 0-11.088687-2.109348-13.759277-6.328106l-8.360068 4.121976c4.373576 7.663434 11.746617 11.495093 22.119345 11.495093 7.779546 0 13.991478-2.322218 18.635983-6.966722 4.644505-4.683209 6.966723-10.914494 6.966723-18.694039V39.4024422z"/>
    <g transform="translate(-7 -6)">
      <rect width="32.9394552" height="133.619926" x="7.83988686" y="7.6900369" fill="url(#a)" rx="16.4697276"/>
      <rect width="32.9394552" height="133.619926" x="101.278374" y="7.6900369" fill="url(#b)" rx="16.4697276"/>
      <rect width="33.209829" height="170.446712" x="53.992362" y="-11.1435743" fill="url(#c)" rx="16.4697276" transform="scale(-1 1) rotate(-42.5 0 255.62037607)"/>
      <rect width="32.9394552" height="169.059041" x="54.5591307" y="-10.0295205" fill="url(#d)" rx="16.4697276" transform="rotate(-42.5 71.028858 74.5)"/>
    </g>
  </g>
</svg>
